<svg width="88" height="145" viewBox="0 0 88 145" fill="none" xmlns="http://www.w3.org/2000/svg">
<g id="Group 56">
<path id="Vector" fill-rule="evenodd" clip-rule="evenodd" d="M59.6333 57.9441L59.4769 64.6123H28.5935L28.3518 57.5985L17.6876 47.2001L0.269531 45.1118C0.269531 45.1118 0.610785 17.7476 1.00891 13.0237C1.99002 1.50198 14.8865 0.925888 15.0145 11.209L10.7488 15.6161L12.4835 30.0183L32.5025 27.2819H53.6175L75.5158 30.0183L77.2505 15.6161L72.9848 11.209C73.1128 0.925888 86.0093 1.47317 86.9904 13.0237C87.3885 17.7044 87.7298 45.1118 87.7298 45.1118L69.2453 47.1569L59.6333 57.9441ZM59.4769 74.3626L68.4917 144.357C68.4917 144.357 58.4531 147.886 56.0359 138.409C53.9173 130.099 46.3013 96.83 46.3013 96.83H41.5327C41.5327 96.83 34.4233 126.787 31.6648 137.516C28.9063 148.246 18.4981 143.882 18.4981 143.882L28.7784 74.3626H59.4769Z" fill="#E00501"/>
<circle id="Ellipse 11" cx="44.0001" cy="11.5079" r="11.5079" fill="#E00501"/>
</g>
</svg>
