<svg width="131" height="140" viewBox="0 0 131 140" fill="none" xmlns="http://www.w3.org/2000/svg">
<g id="Group 59">
<path id="Union" d="M0 53.0872H14.2391V69.1807H116.761V53.0872H131V92.0513H116.761V76.908H14.2391V92.0513H0V53.0872Z" fill="white"/>
<path id="Union_2" d="M43.9381 32.3399C44.7618 31.6529 45.7434 31.1987 46.7835 31.0131V30.9184H83.8188C83.8634 30.9184 83.9081 30.9175 83.9525 30.9184C85.3339 30.9487 86.6665 31.4496 87.7337 32.3399L104.58 46.388C105.996 47.5685 106.815 49.3258 106.815 51.1801V75.089C106.815 78.5207 104.062 81.3026 100.665 81.3026C97.2686 81.3026 94.5149 78.5207 94.5149 75.089V54.1083L83.9525 45.3003V63.067H46.7835V46.0807L37.157 54.1083V75.089C37.157 78.5207 34.4033 81.3026 31.0067 81.3026C27.6101 81.3026 24.8564 78.5207 24.8564 75.089V51.1801C24.8564 49.3258 25.6761 47.5685 27.0918 46.388L43.9381 32.3399Z" fill="#E00501"/>
<path id="Subtract" d="M38.7625 83.3179L27.3448 90.4796C25.4295 91.6809 24.0956 93.6218 23.6591 95.8422L16.9506 129.968C16.0776 134.41 18.9651 138.719 23.4001 139.593C27.835 140.467 32.138 137.575 33.0111 133.134L39.0354 102.488L58.4598 90.3043H72.5403L91.9646 102.488L97.989 133.134C98.8621 137.575 103.165 140.467 107.6 139.593C112.035 138.719 114.923 134.41 114.05 129.968L107.341 95.8422C106.905 93.6218 105.571 91.6809 103.655 90.4796L92.2376 83.3179H38.7625Z" fill="#E00501"/>
<circle id="Ellipse 14" cx="66" cy="13" r="13" fill="#E00501"/>
</g>
</svg>
