<svg width="138" height="164" viewBox="0 0 138 164" fill="none" xmlns="http://www.w3.org/2000/svg">
<g id="Group 55">
<g id="Group">
<path id="Vector" d="M56.4141 48.8388C56.4141 52.2231 57.7585 55.4689 60.1516 57.862C62.5447 60.2551 65.7904 61.5995 69.1747 61.5995C72.5591 61.5995 75.8048 60.2551 78.1979 57.862C80.591 55.4689 81.9354 52.2231 81.9354 48.8388C81.9354 45.4545 80.591 42.2087 78.1979 39.8156C75.8048 37.4225 72.5591 36.0781 69.1747 36.0781C65.7904 36.0781 62.5447 37.4225 60.1516 39.8156C57.7585 42.2087 56.4141 45.4545 56.4141 48.8388Z" fill="#E00501"/>
<g id="Vector_2">
<path d="M98.149 30.5659C97.2715 30.5655 96.4028 30.7486 95.5947 31.1044C94.7865 31.4603 94.0554 31.9816 93.4448 32.6373C92.8341 33.293 92.3564 34.0698 92.04 34.9215C91.7237 35.7732 91.5751 36.6824 91.6032 37.595V45.7684C91.6038 49.0029 90.9532 52.2017 89.6933 55.1586C88.4335 58.1155 86.5923 60.7651 84.2884 62.9365C81.9845 65.1079 79.269 66.7531 76.3169 67.7659C73.3647 68.7788 70.2414 69.137 67.1481 68.8173C61.5039 68.076 56.3259 65.1786 52.6195 60.6876C48.9132 56.1967 46.9431 50.4327 47.0918 44.5152V37.595C47.0918 35.7886 46.4022 34.0562 45.1746 32.7788C43.947 31.5015 42.2821 30.7839 40.546 30.7839C38.81 30.7839 37.145 31.5015 35.9174 32.7788C34.6899 34.0562 34.0002 35.7886 34.0002 37.595V44.2972C33.9773 51.3047 35.7944 58.1856 39.2552 64.197C42.716 70.2084 47.6891 75.1221 53.6376 78.4074V154.241C53.6376 154.964 53.9135 155.657 54.4045 156.168C54.8955 156.679 55.5615 156.966 56.2559 156.966H64.1109C64.8053 156.966 65.4713 156.679 65.9623 156.168C66.4533 155.657 66.7292 154.964 66.7292 154.241V117.749C66.7292 117.026 67.005 116.333 67.4961 115.822C67.9871 115.311 68.6531 115.024 69.3475 115.024C70.0419 115.024 70.7079 115.311 71.1989 115.822C71.69 116.333 71.9658 117.026 71.9658 117.749V154.241C71.9658 154.964 72.2417 155.657 72.7327 156.168C73.2237 156.679 73.8897 156.966 74.5841 156.966H82.4391C83.1335 156.966 83.7995 156.679 84.2905 156.168C84.7816 155.657 85.0574 154.964 85.0574 154.241V78.4619C90.9137 75.4319 95.8487 70.773 99.3151 65.002C102.781 59.231 104.644 52.5736 104.695 45.7684V37.595C104.723 36.6824 104.574 35.7732 104.258 34.9215C103.942 34.0698 103.464 33.293 102.853 32.6373C102.243 31.9816 101.511 31.4603 100.703 31.1044C99.8952 30.7486 99.0265 30.5655 98.149 30.5659Z" fill="#E00501"/>
<path d="M53.752 164V143.951H66.7292V154.887C66.7292 159.92 62.6491 164 57.6161 164H53.752Z" fill="#E00501"/>
<path d="M85.0176 164V143.951H72.0405V154.887C72.0405 159.92 76.1205 164 81.1535 164H85.0176Z" fill="#E00501"/>
</g>
</g>
<path id="Union" d="M0 0H15V17.5H123V0H138V41H123V24.5H15V41H0V0Z" fill="white"/>
</g>
</svg>
