<svg width="165" height="219" viewBox="0 0 165 219" fill="none" xmlns="http://www.w3.org/2000/svg">
<g id="Vector">
<path d="M96.1375 70.0493C96.1375 77.7052 89.9713 83.9115 82.365 83.9115C74.7586 83.9115 68.5925 77.7052 68.5925 70.0493C68.5925 62.3934 74.7586 56.1871 82.365 56.1871C89.9713 56.1871 96.1375 62.3934 96.1375 70.0493Z" fill="url(#paint0_linear_346_1191)"/>
<path d="M33.1001 31.8795C29.3065 33.6366 31.3544 38.1564 33.1001 41.9748L52.3488 84.076C54.1792 88.0795 56.5917 91.4836 59.4108 94.2849V139.875L59.4108 139.904V208.671C59.4108 214.376 64.0051 219 69.6726 219C75.3401 219 79.9345 214.376 79.9345 208.671V157.843H83.7152V208.671C83.7152 214.376 88.3096 219 93.9771 219C99.6445 219 104.239 214.376 104.239 208.671V95.3142C107.525 92.3312 110.324 88.5835 112.385 84.076L131.633 41.9748C133.379 38.1564 135.427 33.6366 131.633 31.8795L117.895 35.6117L98.6466 77.713C95.516 84.5604 90.1302 88.3238 83.7152 88.804H82.9051H81.8283H81.0147C74.5997 88.3238 69.2174 84.5604 66.0867 77.713L46.8381 35.6117L33.1001 31.8795Z" fill="url(#paint1_linear_346_1191)"/>
<path d="M8.64157 0H16.2029V19.0265H148.527V0H156.088V19.0265H156.628V9.24147H164.19V20.4777C164.697 21.1254 165 21.9429 165 22.8319C165 23.7208 164.697 24.5384 164.19 25.186V35.8786H156.628V26.6372H156.088V45.1201H148.527V26.6372H16.2029V45.1201H8.64157V26.6372H7.56137V35.8786H0V9.24147H7.56137V19.0265H8.64157V0Z" fill="url(#paint2_linear_346_1191)"/>
</g>
<defs>
<linearGradient id="paint0_linear_346_1191" x1="82.5" y1="4" x2="82.5" y2="219" gradientUnits="userSpaceOnUse">
<stop stop-color="#E00501"/>
<stop offset="0.175" stop-color="#EA524F"/>
<stop offset="0.575" stop-color="#F08886"/>
<stop offset="1" stop-color="white"/>
</linearGradient>
<linearGradient id="paint1_linear_346_1191" x1="82.5" y1="4" x2="82.5" y2="219" gradientUnits="userSpaceOnUse">
<stop stop-color="#E00501"/>
<stop offset="0.175" stop-color="#EA524F"/>
<stop offset="0.575" stop-color="#F08886"/>
<stop offset="1" stop-color="white"/>
</linearGradient>
<linearGradient id="paint2_linear_346_1191" x1="82.5" y1="4" x2="82.5" y2="219" gradientUnits="userSpaceOnUse">
<stop stop-color="#E00501"/>
<stop offset="0.175" stop-color="#EA524F"/>
<stop offset="0.575" stop-color="#F08886"/>
<stop offset="1" stop-color="white"/>
</linearGradient>
</defs>
</svg>
